<mxfile host="app.diagrams.net" modified="2024-02-12T14:46:59.604Z" agent="Mozilla/5.0 (Windows NT 10.0; Win64; x64; rv:122.0) Gecko/20100101 Firefox/122.0" etag="zncuPRvtDzV99gVkVqPs" version="22.1.18" type="device">
  <diagram id="C5RBs43oDa-KdzZeNtuy" name="Page-1">
    <mxGraphModel dx="988" dy="544" grid="1" gridSize="10" guides="1" tooltips="1" connect="1" arrows="1" fold="1" page="1" pageScale="1" pageWidth="827" pageHeight="1169" math="0" shadow="0">
      <root>
        <mxCell id="WIyWlLk6GJQsqaUBKTNV-0" />
        <mxCell id="WIyWlLk6GJQsqaUBKTNV-1" parent="WIyWlLk6GJQsqaUBKTNV-0" />
        <mxCell id="WIyWlLk6GJQsqaUBKTNV-2" value="" style="rounded=0;html=1;jettySize=auto;orthogonalLoop=1;fontSize=11;endArrow=block;endFill=0;endSize=8;strokeWidth=1;shadow=0;labelBackgroundColor=none;edgeStyle=orthogonalEdgeStyle;exitX=1;exitY=0.5;exitDx=0;exitDy=0;entryX=0;entryY=0.5;entryDx=0;entryDy=0;" parent="WIyWlLk6GJQsqaUBKTNV-1" target="WIyWlLk6GJQsqaUBKTNV-3" edge="1">
          <mxGeometry relative="1" as="geometry">
            <mxPoint x="110" y="59.999999999999886" as="sourcePoint" />
            <mxPoint x="120" y="150" as="targetPoint" />
          </mxGeometry>
        </mxCell>
        <mxCell id="WIyWlLk6GJQsqaUBKTNV-3" value="Anwendung starten" style="rounded=1;whiteSpace=wrap;html=1;fontSize=12;glass=0;strokeWidth=1;shadow=0;" parent="WIyWlLk6GJQsqaUBKTNV-1" vertex="1">
          <mxGeometry x="160" y="40" width="120" height="40" as="geometry" />
        </mxCell>
        <mxCell id="WIyWlLk6GJQsqaUBKTNV-4" value="Nein" style="rounded=0;html=1;jettySize=auto;orthogonalLoop=1;fontSize=11;endArrow=block;endFill=0;endSize=8;strokeWidth=1;shadow=0;labelBackgroundColor=none;edgeStyle=orthogonalEdgeStyle;entryX=1;entryY=0.5;entryDx=0;entryDy=0;exitX=0;exitY=0.5;exitDx=0;exitDy=0;" parent="WIyWlLk6GJQsqaUBKTNV-1" source="WIyWlLk6GJQsqaUBKTNV-6" target="WIyWlLk6GJQsqaUBKTNV-11" edge="1">
          <mxGeometry x="0.1111" y="-10" relative="1" as="geometry">
            <mxPoint as="offset" />
            <mxPoint x="270" y="348" as="targetPoint" />
            <mxPoint x="345" y="358" as="sourcePoint" />
          </mxGeometry>
        </mxCell>
        <mxCell id="WIyWlLk6GJQsqaUBKTNV-6" value="Email passt zu eingegebenen Passwort in der Datenbank?" style="rhombus;whiteSpace=wrap;html=1;shadow=0;fontFamily=Helvetica;fontSize=12;align=center;strokeWidth=1;spacing=6;spacingTop=-4;" parent="WIyWlLk6GJQsqaUBKTNV-1" vertex="1">
          <mxGeometry x="345" y="280" width="150" height="120" as="geometry" />
        </mxCell>
        <mxCell id="WIyWlLk6GJQsqaUBKTNV-7" value="Eingabe Email" style="rounded=1;whiteSpace=wrap;html=1;fontSize=12;glass=0;strokeWidth=1;shadow=0;" parent="WIyWlLk6GJQsqaUBKTNV-1" vertex="1">
          <mxGeometry x="360" y="120" width="120" height="40" as="geometry" />
        </mxCell>
        <mxCell id="WIyWlLk6GJQsqaUBKTNV-11" value="Fehler anzeigen" style="rounded=1;whiteSpace=wrap;html=1;fontSize=12;glass=0;strokeWidth=1;shadow=0;" parent="WIyWlLk6GJQsqaUBKTNV-1" vertex="1">
          <mxGeometry x="160" y="320" width="120" height="40" as="geometry" />
        </mxCell>
        <mxCell id="JsSTKDVxc20D_G5R1pHC-2" value="Login-Fenster darstellen" style="rounded=1;whiteSpace=wrap;html=1;fontSize=12;glass=0;strokeWidth=1;shadow=0;" parent="WIyWlLk6GJQsqaUBKTNV-1" vertex="1">
          <mxGeometry x="360" y="40" width="120" height="40" as="geometry" />
        </mxCell>
        <mxCell id="JsSTKDVxc20D_G5R1pHC-3" value="" style="rounded=0;html=1;jettySize=auto;orthogonalLoop=1;fontSize=11;endArrow=block;endFill=0;endSize=8;strokeWidth=1;shadow=0;labelBackgroundColor=none;edgeStyle=orthogonalEdgeStyle;exitX=1;exitY=0.5;exitDx=0;exitDy=0;entryX=0;entryY=0.5;entryDx=0;entryDy=0;" parent="WIyWlLk6GJQsqaUBKTNV-1" target="JsSTKDVxc20D_G5R1pHC-2" edge="1">
          <mxGeometry relative="1" as="geometry">
            <mxPoint x="280" y="59.71" as="sourcePoint" />
            <mxPoint x="330" y="59.71" as="targetPoint" />
          </mxGeometry>
        </mxCell>
        <mxCell id="JsSTKDVxc20D_G5R1pHC-4" value="" style="rounded=0;html=1;jettySize=auto;orthogonalLoop=1;fontSize=11;endArrow=block;endFill=0;endSize=8;strokeWidth=1;shadow=0;labelBackgroundColor=none;edgeStyle=orthogonalEdgeStyle;exitX=0.5;exitY=1;exitDx=0;exitDy=0;entryX=0.5;entryY=0;entryDx=0;entryDy=0;" parent="WIyWlLk6GJQsqaUBKTNV-1" source="JsSTKDVxc20D_G5R1pHC-2" target="WIyWlLk6GJQsqaUBKTNV-7" edge="1">
          <mxGeometry relative="1" as="geometry">
            <mxPoint x="380" y="110" as="sourcePoint" />
            <mxPoint x="460" y="110.28999999999999" as="targetPoint" />
          </mxGeometry>
        </mxCell>
        <mxCell id="JsSTKDVxc20D_G5R1pHC-6" value="Eingabe Passwort" style="rounded=1;whiteSpace=wrap;html=1;fontSize=12;glass=0;strokeWidth=1;shadow=0;" parent="WIyWlLk6GJQsqaUBKTNV-1" vertex="1">
          <mxGeometry x="360" y="200" width="120" height="40" as="geometry" />
        </mxCell>
        <mxCell id="JsSTKDVxc20D_G5R1pHC-7" value="" style="rounded=0;html=1;jettySize=auto;orthogonalLoop=1;fontSize=11;endArrow=block;endFill=0;endSize=8;strokeWidth=1;shadow=0;labelBackgroundColor=none;edgeStyle=orthogonalEdgeStyle;exitX=0.5;exitY=1;exitDx=0;exitDy=0;entryX=0.5;entryY=0;entryDx=0;entryDy=0;" parent="WIyWlLk6GJQsqaUBKTNV-1" edge="1">
          <mxGeometry relative="1" as="geometry">
            <mxPoint x="419.71" y="160" as="sourcePoint" />
            <mxPoint x="419.71" y="200" as="targetPoint" />
          </mxGeometry>
        </mxCell>
        <mxCell id="JsSTKDVxc20D_G5R1pHC-9" value="" style="points=[[0.145,0.145,0],[0.5,0,0],[0.855,0.145,0],[1,0.5,0],[0.855,0.855,0],[0.5,1,0],[0.145,0.855,0],[0,0.5,0]];shape=mxgraph.bpmn.event;html=1;verticalLabelPosition=bottom;labelBackgroundColor=#ffffff;verticalAlign=top;align=center;perimeter=ellipsePerimeter;outlineConnect=0;aspect=fixed;outline=end;symbol=terminate2;" parent="WIyWlLk6GJQsqaUBKTNV-1" vertex="1">
          <mxGeometry x="545" y="315" width="50" height="50" as="geometry" />
        </mxCell>
        <mxCell id="JsSTKDVxc20D_G5R1pHC-10" value="" style="strokeWidth=2;html=1;shape=mxgraph.flowchart.start_2;whiteSpace=wrap;" parent="WIyWlLk6GJQsqaUBKTNV-1" vertex="1">
          <mxGeometry x="10" y="10" width="100" height="100" as="geometry" />
        </mxCell>
        <mxCell id="JsSTKDVxc20D_G5R1pHC-12" value="" style="rounded=0;html=1;jettySize=auto;orthogonalLoop=1;fontSize=11;endArrow=block;endFill=0;endSize=8;strokeWidth=1;shadow=0;labelBackgroundColor=none;edgeStyle=orthogonalEdgeStyle;exitX=0.5;exitY=1;exitDx=0;exitDy=0;" parent="WIyWlLk6GJQsqaUBKTNV-1" target="JsSTKDVxc20D_G5R1pHC-9" edge="1">
          <mxGeometry relative="1" as="geometry">
            <mxPoint x="495" y="340" as="sourcePoint" />
            <mxPoint x="495" y="380" as="targetPoint" />
          </mxGeometry>
        </mxCell>
        <mxCell id="JsSTKDVxc20D_G5R1pHC-13" value="Ja" style="text;html=1;align=center;verticalAlign=middle;resizable=0;points=[];autosize=1;strokeColor=none;fillColor=none;" parent="WIyWlLk6GJQsqaUBKTNV-1" vertex="1">
          <mxGeometry x="495" y="318" width="40" height="30" as="geometry" />
        </mxCell>
        <mxCell id="JsSTKDVxc20D_G5R1pHC-15" value="" style="rounded=0;html=1;jettySize=auto;orthogonalLoop=1;fontSize=11;endArrow=block;endFill=0;endSize=8;strokeWidth=1;shadow=0;labelBackgroundColor=none;edgeStyle=orthogonalEdgeStyle;exitX=0.5;exitY=1;exitDx=0;exitDy=0;entryX=0.5;entryY=0;entryDx=0;entryDy=0;" parent="WIyWlLk6GJQsqaUBKTNV-1" edge="1">
          <mxGeometry relative="1" as="geometry">
            <mxPoint x="419.76" y="240" as="sourcePoint" />
            <mxPoint x="419.76" y="280" as="targetPoint" />
          </mxGeometry>
        </mxCell>
        <mxCell id="JsSTKDVxc20D_G5R1pHC-17" value="" style="rounded=0;html=1;jettySize=auto;orthogonalLoop=1;fontSize=11;endArrow=block;endFill=0;endSize=8;strokeWidth=1;shadow=0;labelBackgroundColor=none;edgeStyle=orthogonalEdgeStyle;exitX=1;exitY=0.5;exitDx=0;exitDy=0;entryX=0;entryY=0.5;entryDx=0;entryDy=0;" parent="WIyWlLk6GJQsqaUBKTNV-1" target="JsSTKDVxc20D_G5R1pHC-18" edge="1">
          <mxGeometry relative="1" as="geometry">
            <mxPoint x="110" y="459.9999999999999" as="sourcePoint" />
            <mxPoint x="120" y="550" as="targetPoint" />
          </mxGeometry>
        </mxCell>
        <mxCell id="JsSTKDVxc20D_G5R1pHC-18" value="Anwendung starten" style="rounded=1;whiteSpace=wrap;html=1;fontSize=12;glass=0;strokeWidth=1;shadow=0;" parent="WIyWlLk6GJQsqaUBKTNV-1" vertex="1">
          <mxGeometry x="160" y="440" width="120" height="40" as="geometry" />
        </mxCell>
        <mxCell id="JsSTKDVxc20D_G5R1pHC-19" value="Nein" style="rounded=0;html=1;jettySize=auto;orthogonalLoop=1;fontSize=11;endArrow=block;endFill=0;endSize=8;strokeWidth=1;shadow=0;labelBackgroundColor=none;edgeStyle=orthogonalEdgeStyle;entryX=1;entryY=0.5;entryDx=0;entryDy=0;exitX=0;exitY=0.5;exitDx=0;exitDy=0;" parent="WIyWlLk6GJQsqaUBKTNV-1" source="JsSTKDVxc20D_G5R1pHC-35" target="JsSTKDVxc20D_G5R1pHC-22" edge="1">
          <mxGeometry x="0.1111" y="-10" relative="1" as="geometry">
            <mxPoint as="offset" />
            <mxPoint x="270" y="815" as="targetPoint" />
          </mxGeometry>
        </mxCell>
        <mxCell id="JsSTKDVxc20D_G5R1pHC-20" value="Passwort passt zu Email" style="rhombus;whiteSpace=wrap;html=1;shadow=0;fontFamily=Helvetica;fontSize=12;align=center;strokeWidth=1;spacing=6;spacingTop=-4;" parent="WIyWlLk6GJQsqaUBKTNV-1" vertex="1">
          <mxGeometry x="510" y="800" width="140" height="102" as="geometry" />
        </mxCell>
        <mxCell id="JsSTKDVxc20D_G5R1pHC-22" value="Fehler anzeigen" style="rounded=1;whiteSpace=wrap;html=1;fontSize=12;glass=0;strokeWidth=1;shadow=0;" parent="WIyWlLk6GJQsqaUBKTNV-1" vertex="1">
          <mxGeometry x="160" y="720" width="120" height="40" as="geometry" />
        </mxCell>
        <mxCell id="JsSTKDVxc20D_G5R1pHC-23" value="Login-Fenster darstellen" style="rounded=1;whiteSpace=wrap;html=1;fontSize=12;glass=0;strokeWidth=1;shadow=0;" parent="WIyWlLk6GJQsqaUBKTNV-1" vertex="1">
          <mxGeometry x="360" y="440" width="120" height="40" as="geometry" />
        </mxCell>
        <mxCell id="JsSTKDVxc20D_G5R1pHC-24" value="" style="rounded=0;html=1;jettySize=auto;orthogonalLoop=1;fontSize=11;endArrow=block;endFill=0;endSize=8;strokeWidth=1;shadow=0;labelBackgroundColor=none;edgeStyle=orthogonalEdgeStyle;exitX=1;exitY=0.5;exitDx=0;exitDy=0;entryX=0;entryY=0.5;entryDx=0;entryDy=0;" parent="WIyWlLk6GJQsqaUBKTNV-1" target="JsSTKDVxc20D_G5R1pHC-23" edge="1">
          <mxGeometry relative="1" as="geometry">
            <mxPoint x="280" y="459.71000000000004" as="sourcePoint" />
            <mxPoint x="330" y="459.71000000000004" as="targetPoint" />
          </mxGeometry>
        </mxCell>
        <mxCell id="JsSTKDVxc20D_G5R1pHC-25" value="" style="rounded=0;html=1;jettySize=auto;orthogonalLoop=1;fontSize=11;endArrow=block;endFill=0;endSize=8;strokeWidth=1;shadow=0;labelBackgroundColor=none;edgeStyle=orthogonalEdgeStyle;exitX=0.5;exitY=1;exitDx=0;exitDy=0;entryX=0.5;entryY=0;entryDx=0;entryDy=0;" parent="WIyWlLk6GJQsqaUBKTNV-1" source="JsSTKDVxc20D_G5R1pHC-23" edge="1">
          <mxGeometry relative="1" as="geometry">
            <mxPoint x="380" y="510" as="sourcePoint" />
            <mxPoint x="420" y="520" as="targetPoint" />
          </mxGeometry>
        </mxCell>
        <mxCell id="JsSTKDVxc20D_G5R1pHC-26" value="Eingabe Passwort" style="rounded=1;whiteSpace=wrap;html=1;fontSize=12;glass=0;strokeWidth=1;shadow=0;" parent="WIyWlLk6GJQsqaUBKTNV-1" vertex="1">
          <mxGeometry x="540" y="720" width="120" height="40" as="geometry" />
        </mxCell>
        <mxCell id="JsSTKDVxc20D_G5R1pHC-27" value="" style="rounded=0;html=1;jettySize=auto;orthogonalLoop=1;fontSize=11;endArrow=block;endFill=0;endSize=8;strokeWidth=1;shadow=0;labelBackgroundColor=none;edgeStyle=orthogonalEdgeStyle;exitX=0.5;exitY=1;exitDx=0;exitDy=0;entryX=0.5;entryY=0;entryDx=0;entryDy=0;" parent="WIyWlLk6GJQsqaUBKTNV-1" target="JsSTKDVxc20D_G5R1pHC-35" edge="1">
          <mxGeometry relative="1" as="geometry">
            <mxPoint x="419.75" y="560" as="sourcePoint" />
            <mxPoint x="419.75" y="600" as="targetPoint" />
          </mxGeometry>
        </mxCell>
        <mxCell id="JsSTKDVxc20D_G5R1pHC-28" value="" style="points=[[0.145,0.145,0],[0.5,0,0],[0.855,0.145,0],[1,0.5,0],[0.855,0.855,0],[0.5,1,0],[0.145,0.855,0],[0,0.5,0]];shape=mxgraph.bpmn.event;html=1;verticalLabelPosition=bottom;labelBackgroundColor=#ffffff;verticalAlign=top;align=center;perimeter=ellipsePerimeter;outlineConnect=0;aspect=fixed;outline=end;symbol=terminate2;" parent="WIyWlLk6GJQsqaUBKTNV-1" vertex="1">
          <mxGeometry x="555" y="977" width="50" height="50" as="geometry" />
        </mxCell>
        <mxCell id="JsSTKDVxc20D_G5R1pHC-29" value="" style="rounded=0;html=1;jettySize=auto;orthogonalLoop=1;fontSize=11;endArrow=block;endFill=0;endSize=8;strokeWidth=1;shadow=0;labelBackgroundColor=none;edgeStyle=orthogonalEdgeStyle;exitX=0.5;exitY=1;exitDx=0;exitDy=0;" parent="WIyWlLk6GJQsqaUBKTNV-1" source="JsSTKDVxc20D_G5R1pHC-20" target="JsSTKDVxc20D_G5R1pHC-28" edge="1">
          <mxGeometry relative="1" as="geometry">
            <mxPoint x="470" y="900" as="sourcePoint" />
            <mxPoint x="470" y="940" as="targetPoint" />
          </mxGeometry>
        </mxCell>
        <mxCell id="JsSTKDVxc20D_G5R1pHC-30" value="Ja" style="text;html=1;align=center;verticalAlign=middle;resizable=0;points=[];autosize=1;strokeColor=none;fillColor=none;" parent="WIyWlLk6GJQsqaUBKTNV-1" vertex="1">
          <mxGeometry x="550" y="910" width="40" height="30" as="geometry" />
        </mxCell>
        <mxCell id="JsSTKDVxc20D_G5R1pHC-31" value="" style="rounded=0;html=1;jettySize=auto;orthogonalLoop=1;fontSize=11;endArrow=block;endFill=0;endSize=8;strokeWidth=1;shadow=0;labelBackgroundColor=none;edgeStyle=orthogonalEdgeStyle;exitX=0;exitY=0.5;exitDx=0;exitDy=0;" parent="WIyWlLk6GJQsqaUBKTNV-1" source="JsSTKDVxc20D_G5R1pHC-20" edge="1">
          <mxGeometry relative="1" as="geometry">
            <mxPoint x="419.76" y="820" as="sourcePoint" />
            <mxPoint x="219" y="760" as="targetPoint" />
          </mxGeometry>
        </mxCell>
        <mxCell id="JsSTKDVxc20D_G5R1pHC-33" value="" style="strokeWidth=2;html=1;shape=mxgraph.flowchart.start_2;whiteSpace=wrap;" parent="WIyWlLk6GJQsqaUBKTNV-1" vertex="1">
          <mxGeometry x="10" y="410" width="100" height="100" as="geometry" />
        </mxCell>
        <mxCell id="JsSTKDVxc20D_G5R1pHC-35" value="Email passt zu gespeichertem User-Profil" style="rhombus;whiteSpace=wrap;html=1;shadow=0;fontFamily=Helvetica;fontSize=12;align=center;strokeWidth=1;spacing=6;spacingTop=-4;" parent="WIyWlLk6GJQsqaUBKTNV-1" vertex="1">
          <mxGeometry x="350" y="690" width="140" height="100" as="geometry" />
        </mxCell>
        <mxCell id="JsSTKDVxc20D_G5R1pHC-36" value="Eingabe Email" style="rounded=1;whiteSpace=wrap;html=1;fontSize=12;glass=0;strokeWidth=1;shadow=0;" parent="WIyWlLk6GJQsqaUBKTNV-1" vertex="1">
          <mxGeometry x="360" y="520" width="120" height="40" as="geometry" />
        </mxCell>
        <mxCell id="JsSTKDVxc20D_G5R1pHC-37" value="" style="rounded=0;html=1;jettySize=auto;orthogonalLoop=1;fontSize=11;endArrow=block;endFill=0;endSize=8;strokeWidth=1;shadow=0;labelBackgroundColor=none;edgeStyle=orthogonalEdgeStyle;exitX=0.5;exitY=1;exitDx=0;exitDy=0;" parent="WIyWlLk6GJQsqaUBKTNV-1" edge="1">
          <mxGeometry relative="1" as="geometry">
            <mxPoint x="490" y="739.83" as="sourcePoint" />
            <mxPoint x="540" y="739.83" as="targetPoint" />
          </mxGeometry>
        </mxCell>
        <mxCell id="JsSTKDVxc20D_G5R1pHC-38" value="Ja" style="text;html=1;align=center;verticalAlign=middle;resizable=0;points=[];autosize=1;strokeColor=none;fillColor=none;" parent="WIyWlLk6GJQsqaUBKTNV-1" vertex="1">
          <mxGeometry x="490" y="717" width="40" height="30" as="geometry" />
        </mxCell>
        <mxCell id="JsSTKDVxc20D_G5R1pHC-39" value="" style="rounded=0;html=1;jettySize=auto;orthogonalLoop=1;fontSize=11;endArrow=block;endFill=0;endSize=8;strokeWidth=1;shadow=0;labelBackgroundColor=none;edgeStyle=orthogonalEdgeStyle;exitX=0.5;exitY=1;exitDx=0;exitDy=0;entryX=0.5;entryY=0;entryDx=0;entryDy=0;" parent="WIyWlLk6GJQsqaUBKTNV-1" edge="1" target="JsSTKDVxc20D_G5R1pHC-20">
          <mxGeometry relative="1" as="geometry">
            <mxPoint x="579.73" y="760" as="sourcePoint" />
            <mxPoint x="579.73" y="800" as="targetPoint" />
          </mxGeometry>
        </mxCell>
        <mxCell id="JsSTKDVxc20D_G5R1pHC-40" value="Nein" style="text;whiteSpace=wrap;html=1;" parent="WIyWlLk6GJQsqaUBKTNV-1" vertex="1">
          <mxGeometry x="364" y="830" width="50" height="40" as="geometry" />
        </mxCell>
        <mxCell id="JsSTKDVxc20D_G5R1pHC-41" value="Nochmal Versuchen" style="rhombus;whiteSpace=wrap;html=1;shadow=0;fontFamily=Helvetica;fontSize=12;align=center;strokeWidth=1;spacing=6;spacingTop=-4;" parent="WIyWlLk6GJQsqaUBKTNV-1" vertex="1">
          <mxGeometry x="170" y="580" width="100" height="80" as="geometry" />
        </mxCell>
        <mxCell id="JsSTKDVxc20D_G5R1pHC-42" value="" style="rounded=0;html=1;jettySize=auto;orthogonalLoop=1;fontSize=11;endArrow=block;endFill=0;endSize=8;strokeWidth=1;shadow=0;labelBackgroundColor=none;edgeStyle=orthogonalEdgeStyle;exitX=0.5;exitY=0;exitDx=0;exitDy=0;entryX=0.5;entryY=1;entryDx=0;entryDy=0;" parent="WIyWlLk6GJQsqaUBKTNV-1" source="JsSTKDVxc20D_G5R1pHC-22" target="JsSTKDVxc20D_G5R1pHC-41" edge="1">
          <mxGeometry relative="1" as="geometry">
            <mxPoint x="220" y="677" as="sourcePoint" />
            <mxPoint x="220" y="717" as="targetPoint" />
          </mxGeometry>
        </mxCell>
        <mxCell id="JsSTKDVxc20D_G5R1pHC-43" value="" style="rounded=0;html=1;jettySize=auto;orthogonalLoop=1;fontSize=11;endArrow=block;endFill=0;endSize=8;strokeWidth=1;shadow=0;labelBackgroundColor=none;edgeStyle=orthogonalEdgeStyle;exitX=0.5;exitY=0;exitDx=0;exitDy=0;entryX=0.25;entryY=1;entryDx=0;entryDy=0;" parent="WIyWlLk6GJQsqaUBKTNV-1" target="JsSTKDVxc20D_G5R1pHC-23" edge="1">
          <mxGeometry relative="1" as="geometry">
            <mxPoint x="219.76" y="580" as="sourcePoint" />
            <mxPoint x="219.76" y="520" as="targetPoint" />
            <Array as="points">
              <mxPoint x="220" y="500" />
              <mxPoint x="390" y="500" />
            </Array>
          </mxGeometry>
        </mxCell>
        <mxCell id="JsSTKDVxc20D_G5R1pHC-44" value="Ja" style="text;html=1;align=center;verticalAlign=middle;resizable=0;points=[];autosize=1;strokeColor=none;fillColor=none;" parent="WIyWlLk6GJQsqaUBKTNV-1" vertex="1">
          <mxGeometry x="190" y="520" width="40" height="30" as="geometry" />
        </mxCell>
        <mxCell id="JsSTKDVxc20D_G5R1pHC-46" value="" style="rounded=0;html=1;jettySize=auto;orthogonalLoop=1;fontSize=11;endArrow=block;endFill=0;endSize=8;strokeWidth=1;shadow=0;labelBackgroundColor=none;edgeStyle=orthogonalEdgeStyle;exitX=0;exitY=0.5;exitDx=0;exitDy=0;entryX=1;entryY=0.5;entryDx=0;entryDy=0;entryPerimeter=0;" parent="WIyWlLk6GJQsqaUBKTNV-1" source="JsSTKDVxc20D_G5R1pHC-41" target="JsSTKDVxc20D_G5R1pHC-50" edge="1">
          <mxGeometry relative="1" as="geometry">
            <mxPoint x="110" y="680" as="sourcePoint" />
            <mxPoint x="95" y="620" as="targetPoint" />
          </mxGeometry>
        </mxCell>
        <mxCell id="JsSTKDVxc20D_G5R1pHC-47" value="Nein" style="text;whiteSpace=wrap;html=1;" parent="WIyWlLk6GJQsqaUBKTNV-1" vertex="1">
          <mxGeometry x="120" y="600" width="50" height="40" as="geometry" />
        </mxCell>
        <mxCell id="JsSTKDVxc20D_G5R1pHC-50" value="" style="points=[[0.145,0.145,0],[0.5,0,0],[0.855,0.145,0],[1,0.5,0],[0.855,0.855,0],[0.5,1,0],[0.145,0.855,0],[0,0.5,0]];shape=mxgraph.bpmn.event;html=1;verticalLabelPosition=bottom;labelBackgroundColor=#ffffff;verticalAlign=top;align=center;perimeter=ellipsePerimeter;outlineConnect=0;aspect=fixed;outline=end;symbol=terminate2;" parent="WIyWlLk6GJQsqaUBKTNV-1" vertex="1">
          <mxGeometry x="35" y="595" width="50" height="50" as="geometry" />
        </mxCell>
        <mxCell id="n04O1DkuvjZ2fOVAnNby-0" value="Nochmal Versuchen" style="rhombus;whiteSpace=wrap;html=1;shadow=0;fontFamily=Helvetica;fontSize=12;align=center;strokeWidth=1;spacing=6;spacingTop=-4;" vertex="1" parent="WIyWlLk6GJQsqaUBKTNV-1">
          <mxGeometry x="170" y="150" width="100" height="80" as="geometry" />
        </mxCell>
        <mxCell id="n04O1DkuvjZ2fOVAnNby-1" value="" style="rounded=0;html=1;jettySize=auto;orthogonalLoop=1;fontSize=11;endArrow=block;endFill=0;endSize=8;strokeWidth=1;shadow=0;labelBackgroundColor=none;edgeStyle=orthogonalEdgeStyle;exitX=0;exitY=0.5;exitDx=0;exitDy=0;entryX=1;entryY=0.5;entryDx=0;entryDy=0;entryPerimeter=0;" edge="1" parent="WIyWlLk6GJQsqaUBKTNV-1" source="n04O1DkuvjZ2fOVAnNby-0" target="n04O1DkuvjZ2fOVAnNby-3">
          <mxGeometry relative="1" as="geometry">
            <mxPoint x="110" y="250" as="sourcePoint" />
            <mxPoint x="95" y="190" as="targetPoint" />
          </mxGeometry>
        </mxCell>
        <mxCell id="n04O1DkuvjZ2fOVAnNby-2" value="Nein" style="text;whiteSpace=wrap;html=1;" vertex="1" parent="WIyWlLk6GJQsqaUBKTNV-1">
          <mxGeometry x="120" y="170" width="50" height="40" as="geometry" />
        </mxCell>
        <mxCell id="n04O1DkuvjZ2fOVAnNby-3" value="" style="points=[[0.145,0.145,0],[0.5,0,0],[0.855,0.145,0],[1,0.5,0],[0.855,0.855,0],[0.5,1,0],[0.145,0.855,0],[0,0.5,0]];shape=mxgraph.bpmn.event;html=1;verticalLabelPosition=bottom;labelBackgroundColor=#ffffff;verticalAlign=top;align=center;perimeter=ellipsePerimeter;outlineConnect=0;aspect=fixed;outline=end;symbol=terminate2;" vertex="1" parent="WIyWlLk6GJQsqaUBKTNV-1">
          <mxGeometry x="35" y="165" width="50" height="50" as="geometry" />
        </mxCell>
        <mxCell id="n04O1DkuvjZ2fOVAnNby-5" value="" style="rounded=0;html=1;jettySize=auto;orthogonalLoop=1;fontSize=11;endArrow=block;endFill=0;endSize=8;strokeWidth=1;shadow=0;labelBackgroundColor=none;edgeStyle=orthogonalEdgeStyle;exitX=0.5;exitY=0;exitDx=0;exitDy=0;entryX=0.25;entryY=1;entryDx=0;entryDy=0;" edge="1" parent="WIyWlLk6GJQsqaUBKTNV-1" source="n04O1DkuvjZ2fOVAnNby-0" target="JsSTKDVxc20D_G5R1pHC-2">
          <mxGeometry relative="1" as="geometry">
            <mxPoint x="220" y="140" as="sourcePoint" />
            <mxPoint x="310" y="90" as="targetPoint" />
            <Array as="points">
              <mxPoint x="220" y="100" />
              <mxPoint x="390" y="100" />
            </Array>
          </mxGeometry>
        </mxCell>
        <mxCell id="n04O1DkuvjZ2fOVAnNby-6" value="" style="rounded=0;html=1;jettySize=auto;orthogonalLoop=1;fontSize=11;endArrow=block;endFill=0;endSize=8;strokeWidth=1;shadow=0;labelBackgroundColor=none;edgeStyle=orthogonalEdgeStyle;entryX=0.5;entryY=1;entryDx=0;entryDy=0;exitX=0.487;exitY=0;exitDx=0;exitDy=0;exitPerimeter=0;" edge="1" parent="WIyWlLk6GJQsqaUBKTNV-1" target="n04O1DkuvjZ2fOVAnNby-0">
          <mxGeometry x="0.1111" y="-10" relative="1" as="geometry">
            <mxPoint as="offset" />
            <mxPoint x="219.58" y="231.04000000000002" as="targetPoint" />
            <mxPoint x="220.41999999999993" y="320" as="sourcePoint" />
            <Array as="points">
              <mxPoint x="220" y="275" />
              <mxPoint x="220" y="275" />
            </Array>
          </mxGeometry>
        </mxCell>
        <mxCell id="n04O1DkuvjZ2fOVAnNby-7" value="Ja" style="text;whiteSpace=wrap;html=1;" vertex="1" parent="WIyWlLk6GJQsqaUBKTNV-1">
          <mxGeometry x="200" y="110" width="20" height="20" as="geometry" />
        </mxCell>
      </root>
    </mxGraphModel>
  </diagram>
</mxfile>
